<svg width="456" height="124" viewBox="0 0 456 124" fill="none" xmlns="http://www.w3.org/2000/svg">
<path d="M266.5 62C266.5 79.9918 252.355 94.5 235 94.5C217.645 94.5 203.5 79.9918 203.5 62C203.5 44.0082 217.645 29.5 235 29.5C252.355 29.5 266.5 44.0082 266.5 62Z" stroke="#EFA263" stroke-width="3"/>
<circle cx="235" cy="62" r="8" stroke="#EFA263" stroke-width="3"/>
<line x1="235.5" y1="9" x2="235.5" y2="124" stroke="#EFA263"/>
<line x1="184" y1="61.5" x2="287" y2="61.5" stroke="#EFA263"/>
<path d="M4.84375 54V14H28.9844V18.2969H9.6875V31.8125H27.7344V36.1094H9.6875V49.7031H29.2969V54H4.84375ZM50.1023 54.625C47.2898 54.625 44.868 53.9609 42.8367 52.6328C40.8055 51.3047 39.243 49.4753 38.1492 47.1445C37.0555 44.8138 36.5086 42.151 36.5086 39.1562C36.5086 36.1094 37.0685 33.4206 38.1883 31.0898C39.3211 28.7461 40.8966 26.9167 42.9148 25.6016C44.9461 24.2734 47.3159 23.6094 50.0242 23.6094C52.1336 23.6094 54.0346 24 55.7273 24.7812C57.4201 25.5625 58.8068 26.6562 59.8875 28.0625C60.9682 29.4687 61.6388 31.1094 61.8992 32.9844H57.2898C56.9383 31.6172 56.157 30.4062 54.9461 29.3516C53.7482 28.2839 52.1336 27.75 50.1023 27.75C48.3055 27.75 46.7299 28.2187 45.3758 29.1562C44.0346 30.0807 42.9865 31.3893 42.2313 33.082C41.4891 34.7617 41.118 36.7344 41.118 39C41.118 41.3177 41.4826 43.3359 42.2117 45.0547C42.9539 46.7734 43.9956 48.1081 45.3367 49.0586C46.6909 50.0091 48.2794 50.4844 50.1023 50.4844C51.3003 50.4844 52.3875 50.276 53.3641 49.8594C54.3406 49.4427 55.1674 48.8438 55.8445 48.0625C56.5216 47.2812 57.0034 46.3437 57.2898 45.25H61.8992C61.6388 47.0208 60.9943 48.6159 59.9656 50.0352C58.95 51.4414 57.6023 52.5612 55.9227 53.3945C54.256 54.2148 52.3159 54.625 50.1023 54.625ZM81.65 54.625C78.9417 54.625 76.5654 53.9805 74.5211 52.6914C72.4898 51.4023 70.9013 49.599 69.7555 47.2812C68.6227 44.9635 68.0563 42.2552 68.0563 39.1562C68.0563 36.0312 68.6227 33.3034 69.7555 30.9727C70.9013 28.6419 72.4898 26.832 74.5211 25.543C76.5654 24.2539 78.9417 23.6094 81.65 23.6094C84.3583 23.6094 86.7281 24.2539 88.7594 25.543C90.8036 26.832 92.3922 28.6419 93.525 30.9727C94.6708 33.3034 95.2438 36.0312 95.2438 39.1562C95.2438 42.2552 94.6708 44.9635 93.525 47.2812C92.3922 49.599 90.8036 51.4023 88.7594 52.6914C86.7281 53.9805 84.3583 54.625 81.65 54.625ZM81.65 50.4844C83.7073 50.4844 85.4 49.957 86.7281 48.9023C88.0563 47.8477 89.0393 46.4609 89.6773 44.7422C90.3154 43.0234 90.6344 41.1615 90.6344 39.1562C90.6344 37.151 90.3154 35.2826 89.6773 33.5508C89.0393 31.819 88.0563 30.4193 86.7281 29.3516C85.4 28.2839 83.7073 27.75 81.65 27.75C79.5927 27.75 77.9 28.2839 76.5719 29.3516C75.2438 30.4193 74.2607 31.819 73.6227 33.5508C72.9846 35.2826 72.6656 37.151 72.6656 39.1562C72.6656 41.1615 72.9846 43.0234 73.6227 44.7422C74.2607 46.4609 75.2438 47.8477 76.5719 48.9023C77.9 49.957 79.5927 50.4844 81.65 50.4844ZM103.105 65.25V24H107.558V28.7656H108.105C108.443 28.2448 108.912 27.5807 109.511 26.7734C110.123 25.9531 110.996 25.224 112.128 24.5859C113.274 23.9349 114.824 23.6094 116.777 23.6094C119.303 23.6094 121.529 24.2409 123.456 25.5039C125.384 26.7669 126.887 28.5573 127.968 30.875C129.049 33.1927 129.589 35.9271 129.589 39.0781C129.589 42.2552 129.049 45.0091 127.968 47.3398C126.887 49.6576 125.39 51.4544 123.476 52.7305C121.562 53.9935 119.355 54.625 116.855 54.625C114.928 54.625 113.385 54.306 112.226 53.668C111.067 53.0169 110.175 52.2812 109.55 51.4609C108.925 50.6276 108.443 49.9375 108.105 49.3906H107.714V65.25H103.105ZM107.636 39C107.636 41.2656 107.968 43.2643 108.632 44.9961C109.296 46.7148 110.266 48.0625 111.542 49.0391C112.818 50.0026 114.381 50.4844 116.23 50.4844C118.157 50.4844 119.765 49.9766 121.054 48.9609C122.356 47.9323 123.333 46.5521 123.984 44.8203C124.648 43.0755 124.98 41.1354 124.98 39C124.98 36.8906 124.654 34.9896 124.003 33.2969C123.365 31.5911 122.395 30.2435 121.093 29.2539C119.804 28.2513 118.183 27.75 116.23 27.75C114.355 27.75 112.779 28.2253 111.503 29.1758C110.227 30.1133 109.264 31.4284 108.613 33.1211C107.962 34.8008 107.636 36.7604 107.636 39ZM146.274 54.7031C144.373 54.7031 142.647 54.3451 141.098 53.6289C139.548 52.8997 138.318 51.8516 137.406 50.4844C136.495 49.1042 136.039 47.4375 136.039 45.4844C136.039 43.7656 136.378 42.3724 137.055 41.3047C137.732 40.224 138.637 39.3776 139.77 38.7656C140.903 38.1536 142.153 37.6979 143.52 37.3984C144.9 37.0859 146.287 36.8385 147.68 36.6563C149.503 36.4219 150.981 36.2461 152.113 36.1289C153.259 35.9987 154.093 35.7839 154.613 35.4844C155.147 35.1849 155.414 34.6641 155.414 33.9219V33.7656C155.414 31.8385 154.887 30.3411 153.832 29.2734C152.791 28.2057 151.209 27.6719 149.086 27.6719C146.886 27.6719 145.16 28.1536 143.91 29.1172C142.66 30.0807 141.781 31.1094 141.274 32.2031L136.899 30.6406C137.68 28.8177 138.722 27.3984 140.024 26.3828C141.339 25.3542 142.771 24.638 144.321 24.2344C145.883 23.8177 147.419 23.6094 148.93 23.6094C149.893 23.6094 151 23.7266 152.25 23.9609C153.513 24.1823 154.731 24.6445 155.903 25.3477C157.087 26.0508 158.071 27.112 158.852 28.5312C159.633 29.9505 160.024 31.8516 160.024 34.2344V54H155.414V49.9375H155.18C154.867 50.5885 154.347 51.2852 153.617 52.0273C152.888 52.7695 151.918 53.401 150.707 53.9219C149.496 54.4427 148.018 54.7031 146.274 54.7031ZM146.977 50.5625C148.8 50.5625 150.336 50.2044 151.586 49.4883C152.849 48.7721 153.8 47.8477 154.438 46.7148C155.089 45.582 155.414 44.3906 155.414 43.1406V38.9219C155.219 39.1562 154.789 39.3711 154.125 39.5664C153.474 39.7487 152.719 39.9115 151.86 40.0547C151.013 40.1849 150.186 40.3021 149.379 40.4062C148.585 40.4974 147.94 40.5755 147.446 40.6406C146.248 40.7969 145.128 41.0508 144.086 41.4023C143.057 41.7409 142.224 42.2552 141.586 42.9453C140.961 43.6224 140.649 44.5469 140.649 45.7187C140.649 47.3203 141.241 48.5312 142.426 49.3516C143.624 50.1589 145.141 50.5625 146.977 50.5625ZM181.449 54.625C178.637 54.625 176.215 53.9609 174.184 52.6328C172.152 51.3047 170.59 49.4753 169.496 47.1445C168.402 44.8138 167.855 42.151 167.855 39.1562C167.855 36.1094 168.415 33.4206 169.535 31.0898C170.668 28.7461 172.243 26.9167 174.262 25.6016C176.293 24.2734 178.663 23.6094 181.371 23.6094C183.48 23.6094 185.382 24 187.074 24.7812C188.767 25.5625 190.154 26.6562 191.234 28.0625C192.315 29.4687 192.986 31.1094 193.246 32.9844H188.637C188.285 31.6172 187.504 30.4062 186.293 29.3516C185.095 28.2839 183.48 27.75 181.449 27.75C179.652 27.75 178.077 28.2187 176.723 29.1562C175.382 30.0807 174.333 31.3893 173.578 33.082C172.836 34.7617 172.465 36.7344 172.465 39C172.465 41.3177 172.829 43.3359 173.559 45.0547C174.301 46.7734 175.342 48.1081 176.684 49.0586C178.038 50.0091 179.626 50.4844 181.449 50.4844C182.647 50.4844 183.734 50.276 184.711 49.8594C185.688 49.4427 186.514 48.8438 187.191 48.0625C187.868 47.2812 188.35 46.3437 188.637 45.25H193.246C192.986 47.0208 192.341 48.6159 191.313 50.0352C190.297 51.4414 188.949 52.5612 187.27 53.3945C185.603 54.2148 183.663 54.625 181.449 54.625ZM205.106 43.0625L205.028 37.3594H205.966L219.091 24H224.794L210.809 38.1406H210.419L205.106 43.0625ZM200.809 54V14H205.419V54H200.809ZM219.872 54L208.153 39.1562L211.434 35.9531L225.731 54H219.872Z" fill="#66BA70"/>
<path d="M263.719 78C263.484 76.0208 262.534 74.4844 260.867 73.3906C259.201 72.2969 257.156 71.75 254.734 71.75C252.964 71.75 251.414 72.0365 250.086 72.6094C248.771 73.1823 247.742 73.9701 247 74.9727C246.271 75.9753 245.906 77.1146 245.906 78.3906C245.906 79.4583 246.16 80.3763 246.668 81.1445C247.189 81.8997 247.853 82.5312 248.66 83.0391C249.467 83.5339 250.314 83.944 251.199 84.2695C252.085 84.582 252.898 84.8359 253.641 85.0312L257.703 86.125C258.745 86.3984 259.904 86.776 261.18 87.2578C262.469 87.7396 263.699 88.3971 264.871 89.2305C266.056 90.0508 267.033 91.1055 267.801 92.3945C268.569 93.6836 268.953 95.2656 268.953 97.1406C268.953 99.3021 268.387 101.255 267.254 103C266.134 104.745 264.493 106.132 262.332 107.16C260.184 108.189 257.573 108.703 254.5 108.703C251.635 108.703 249.155 108.241 247.059 107.316C244.975 106.392 243.335 105.103 242.137 103.449C240.952 101.796 240.281 99.875 240.125 97.6875H245.125C245.255 99.1979 245.763 100.448 246.648 101.437C247.547 102.414 248.68 103.143 250.047 103.625C251.427 104.094 252.911 104.328 254.5 104.328C256.349 104.328 258.009 104.029 259.48 103.43C260.952 102.818 262.117 101.971 262.977 100.891C263.836 99.7969 264.266 98.5208 264.266 97.0625C264.266 95.7344 263.895 94.6536 263.152 93.8203C262.41 92.987 261.434 92.3099 260.223 91.7891C259.012 91.2682 257.703 90.8125 256.297 90.4219L251.375 89.0156C248.25 88.1172 245.776 86.8346 243.953 85.168C242.13 83.5013 241.219 81.3203 241.219 78.625C241.219 76.3854 241.824 74.4323 243.035 72.7656C244.259 71.0859 245.9 69.7839 247.957 68.8594C250.027 67.9219 252.339 67.4531 254.891 67.4531C257.469 67.4531 259.76 67.9154 261.766 68.8398C263.771 69.7513 265.359 71.0013 266.531 72.5898C267.716 74.1784 268.341 75.9818 268.406 78H263.719ZM289.304 108.625C286.492 108.625 284.07 107.961 282.039 106.633C280.008 105.305 278.445 103.475 277.351 101.145C276.258 98.8138 275.711 96.151 275.711 93.1562C275.711 90.1094 276.271 87.4206 277.39 85.0898C278.523 82.7461 280.099 80.9167 282.117 79.6016C284.148 78.2734 286.518 77.6094 289.226 77.6094C291.336 77.6094 293.237 78 294.929 78.7812C296.622 79.5625 298.009 80.6562 299.09 82.0625C300.17 83.4687 300.841 85.1094 301.101 86.9844H296.492C296.14 85.6172 295.359 84.4062 294.148 83.3516C292.95 82.2839 291.336 81.75 289.304 81.75C287.508 81.75 285.932 82.2187 284.578 83.1562C283.237 84.0807 282.189 85.3893 281.433 87.082C280.691 88.7617 280.32 90.7344 280.32 93C280.32 95.3177 280.685 97.3359 281.414 99.0547C282.156 100.773 283.198 102.108 284.539 103.059C285.893 104.009 287.482 104.484 289.304 104.484C290.502 104.484 291.59 104.276 292.566 103.859C293.543 103.443 294.37 102.844 295.047 102.062C295.724 101.281 296.206 100.344 296.492 99.25H301.101C300.841 101.021 300.196 102.616 299.168 104.035C298.152 105.441 296.804 106.561 295.125 107.395C293.458 108.215 291.518 108.625 289.304 108.625ZM317.493 108.703C315.592 108.703 313.866 108.345 312.317 107.629C310.768 106.9 309.537 105.852 308.626 104.484C307.714 103.104 307.258 101.437 307.258 99.4844C307.258 97.7656 307.597 96.3724 308.274 95.3047C308.951 94.224 309.856 93.3776 310.989 92.7656C312.122 92.1536 313.372 91.6979 314.739 91.3984C316.119 91.0859 317.506 90.8385 318.899 90.6563C320.722 90.4219 322.2 90.2461 323.333 90.1289C324.478 89.9987 325.312 89.7839 325.833 89.4844C326.366 89.1849 326.633 88.6641 326.633 87.9219V87.7656C326.633 85.8385 326.106 84.3411 325.051 83.2734C324.01 82.2057 322.428 81.6719 320.305 81.6719C318.105 81.6719 316.379 82.1536 315.129 83.1172C313.879 84.0807 313.001 85.1094 312.493 86.2031L308.118 84.6406C308.899 82.8177 309.941 81.3984 311.243 80.3828C312.558 79.3542 313.99 78.638 315.54 78.2344C317.102 77.8177 318.639 77.6094 320.149 77.6094C321.113 77.6094 322.219 77.7266 323.469 77.9609C324.732 78.1823 325.95 78.6445 327.122 79.3477C328.307 80.0508 329.29 81.112 330.071 82.5312C330.852 83.9505 331.243 85.8516 331.243 88.2344V108H326.633V103.937H326.399C326.087 104.589 325.566 105.285 324.837 106.027C324.107 106.77 323.137 107.401 321.926 107.922C320.715 108.443 319.238 108.703 317.493 108.703ZM318.196 104.562C320.019 104.562 321.555 104.204 322.805 103.488C324.068 102.772 325.019 101.848 325.657 100.715C326.308 99.582 326.633 98.3906 326.633 97.1406V92.9219C326.438 93.1562 326.008 93.3711 325.344 93.5664C324.693 93.7487 323.938 93.9115 323.079 94.0547C322.232 94.1849 321.406 94.3021 320.598 94.4062C319.804 94.4974 319.159 94.5755 318.665 94.6406C317.467 94.7969 316.347 95.0508 315.305 95.4023C314.277 95.7409 313.443 96.2552 312.805 96.9453C312.18 97.6224 311.868 98.5469 311.868 99.7187C311.868 101.32 312.46 102.531 313.645 103.352C314.843 104.159 316.36 104.562 318.196 104.562ZM345.09 89.9531V108H340.481V78H344.934V82.6875H345.325C346.028 81.1641 347.095 79.9401 348.528 79.0156C349.96 78.0781 351.809 77.6094 354.075 77.6094C356.106 77.6094 357.883 78.026 359.407 78.8594C360.93 79.6797 362.115 80.9297 362.961 82.6094C363.808 84.276 364.231 86.3854 364.231 88.9375V108H359.621V89.25C359.621 86.8932 359.01 85.0573 357.786 83.7422C356.562 82.4141 354.882 81.75 352.746 81.75C351.275 81.75 349.96 82.069 348.801 82.707C347.655 83.3451 346.75 84.276 346.086 85.5C345.422 86.724 345.09 88.2083 345.09 89.9531ZM378.088 89.9531V108H373.479V78H377.932V82.6875H378.322C379.026 81.1641 380.093 79.9401 381.526 79.0156C382.958 78.0781 384.807 77.6094 387.072 77.6094C389.104 77.6094 390.881 78.026 392.404 78.8594C393.928 79.6797 395.113 80.9297 395.959 82.6094C396.806 84.276 397.229 86.3854 397.229 88.9375V108H392.619V89.25C392.619 86.8932 392.007 85.0573 390.783 83.7422C389.559 82.4141 387.88 81.75 385.744 81.75C384.273 81.75 382.958 82.069 381.799 82.707C380.653 83.3451 379.748 84.276 379.084 85.5C378.42 86.724 378.088 88.2083 378.088 89.9531ZM419.055 108.625C416.164 108.625 413.671 107.987 411.574 106.711C409.491 105.422 407.883 103.625 406.75 101.32C405.63 99.0026 405.07 96.3073 405.07 93.2344C405.07 90.1615 405.63 87.4531 406.75 85.1094C407.883 82.7526 409.458 80.9167 411.477 79.6016C413.508 78.2734 415.878 77.6094 418.586 77.6094C420.148 77.6094 421.691 77.8698 423.215 78.3906C424.738 78.9115 426.125 79.7578 427.375 80.9297C428.625 82.0885 429.621 83.625 430.363 85.5391C431.105 87.4531 431.477 89.8099 431.477 92.6094V94.5625H408.352V90.5781H426.789C426.789 88.8854 426.451 87.375 425.773 86.0469C425.109 84.7187 424.159 83.6706 422.922 82.9023C421.698 82.1341 420.253 81.75 418.586 81.75C416.75 81.75 415.161 82.2057 413.82 83.1172C412.492 84.0156 411.47 85.1875 410.754 86.6328C410.038 88.0781 409.68 89.6276 409.68 91.2812V93.9375C409.68 96.2031 410.07 98.1237 410.852 99.6992C411.646 101.262 412.746 102.453 414.152 103.273C415.559 104.081 417.193 104.484 419.055 104.484C420.266 104.484 421.359 104.315 422.336 103.977C423.326 103.625 424.178 103.104 424.895 102.414C425.611 101.711 426.164 100.839 426.555 99.7969L431.008 101.047C430.539 102.557 429.751 103.885 428.645 105.031C427.538 106.164 426.171 107.049 424.543 107.687C422.915 108.313 421.086 108.625 419.055 108.625ZM439.313 108V78H443.766V82.5312H444.079C444.626 81.0469 445.615 79.8424 447.048 78.918C448.48 77.9935 450.095 77.5312 451.891 77.5312C452.23 77.5312 452.653 77.5378 453.161 77.5508C453.669 77.5638 454.053 77.5833 454.313 77.6094V82.2969C454.157 82.2578 453.799 82.1992 453.239 82.1211C452.692 82.0299 452.113 81.9844 451.501 81.9844C450.042 81.9844 448.74 82.2904 447.595 82.9023C446.462 83.5013 445.563 84.3346 444.899 85.4023C444.248 86.457 443.923 87.6615 443.923 89.0156V108H439.313Z" fill="#66BA70"/>
</svg>
